HIERARCHY
ROOT Root
{
	OFFSET 0.00000 0.00000 0.00000
	CHANNELS 6 Xposition Yposition Zposition Zrotation Xrotation Yrotation
	JOINT Hips
	{
		OFFSET 0 0 0	
		CHANNELS 3 Zrotation Xrotation Yrotation
		JOINT Spine
		{
			OFFSET 0 4 0	
			CHANNELS 3 Zrotation Xrotation Yrotation
			JOINT Spine1
			{
				OFFSET 0 19.4 0	
				CHANNELS 3 Zrotation Xrotation Yrotation
				JOINT Spine2
				{
					OFFSET 0 16.6 0	
					CHANNELS 3 Zrotation Xrotation Yrotation
					JOINT LeftCollar
					{
						OFFSET 0 10 0	
						CHANNELS 3 Zrotation Xrotation Yrotation
						JOINT LeftArm
						{
							OFFSET 15.6 -2 3	
							CHANNELS 3 Zrotation Xrotation Yrotation
							JOINT LeftForeArm
							{
								OFFSET 3.5 -27 -1	
								CHANNELS 3 Zrotation Xrotation Yrotation
								JOINT LeftHand
								{
									OFFSET 1 -27 1	
									CHANNELS 3 Zrotation Xrotation Yrotation
									End Site
									{
										OFFSET 0 -15 0
									}
								}
							}
						}
					}
					JOINT RightCollar
					{
						OFFSET 0 10 0	
						CHANNELS 3 Zrotation Xrotation Yrotation
						JOINT RightArm
						{
							OFFSET -15.6 -2 3	
							CHANNELS 3 Zrotation Xrotation Yrotation
							JOINT RightForeArm
							{
								OFFSET -3.5 -27 -1	
								CHANNELS 3 Zrotation Xrotation Yrotation
								JOINT RightHand
								{
									OFFSET -1 -27 1	
									CHANNELS 3 Zrotation Xrotation Yrotation
									End Site
									{
										OFFSET 0 -15 0
									}
								}
							}
						}
					}
					JOINT Neck
					{
						OFFSET 0 10 0	
						CHANNELS 3 Zrotation Xrotation Yrotation
						JOINT Head
						{
							OFFSET 0 12.7 3	
							CHANNELS 3 Zrotation Xrotation Yrotation
							End Site
							{
								OFFSET 0 12.7 3
							}
						}
					}
				}
			}
		}
	}
	JOINT LeftHip
	{
		OFFSET 0 0 0	
		CHANNELS 3 Zrotation Xrotation Yrotation
		JOINT LeftUpLeg
		{
			OFFSET 8.8 -6 0	
			CHANNELS 3 Zrotation Xrotation Yrotation
			JOINT LeftLeg
			{
				OFFSET 0 -39 2	
				CHANNELS 3 Zrotation Xrotation Yrotation
				JOINT LeftFoot
				{
					OFFSET 0 -43 -2	
					CHANNELS 3 Zrotation Xrotation Yrotation
					JOINT LeftFootFront
					{
						OFFSET 0 -7 8.5	
						CHANNELS 3 Zrotation Xrotation Yrotation
						End Site
						{
							OFFSET 0 -0.5 9
						}
					}
				}
				JOINT LeftHeel
				{
					OFFSET 0 -43 -2	
					CHANNELS 3 Zrotation Xrotation Yrotation
					End Site
					{
						OFFSET 0 -7.5 -5
					}
				}
			}
		}
	}
	JOINT RightHip
	{
		OFFSET 0 0 0	
		CHANNELS 3 Zrotation Xrotation Yrotation
		JOINT RightUpLeg
		{
			OFFSET -8.8 -6 0	
			CHANNELS 3 Zrotation Xrotation Yrotation
			JOINT RightLeg
			{
				OFFSET 0 -39 2	
				CHANNELS 3 Zrotation Xrotation Yrotation
				JOINT RightFoot
				{
					OFFSET 0 -43 -2	
					CHANNELS 3 Zrotation Xrotation Yrotation
					JOINT RightFootFront
					{
						OFFSET 0 -7 8.5	
						CHANNELS 3 Zrotation Xrotation Yrotation
						End Site
						{
							OFFSET 0 -0.5 9
						}
					}
				}
				JOINT RightHeel
				{
					OFFSET 0 -43 -2	
					CHANNELS 3 Zrotation Xrotation Yrotation
					End Site
					{
						OFFSET 0 -7.5 -5
					}
				}
			}
		}
	}
}
MOTION
Frames: 9
Frame Time: 0.05
0 95.5 0 -0 0 -0 0.12365 0.70823 5.3801 -0.1088 -0.11491 0.28166 -0.1088 -0.11491 0.28166 -0.091429 -0.096487 0.23661 -0 0 -0 -0.46424 0.50213 1.663 -1.2809 0.663 3.5404 0.16203 -0.65382 4.3328 -0 0 -0 0.1874 -0.031634 -0.90893 0.029076 0.10277 -1.298 0.29102 -0.42825 -0.84622 -2.677 4.3222 -0.6635 -2.677 4.3222 -0.6635 -0 0 -0 -0 0 -0 -0 0 -0 -0 0 -0 -0 0 -0 -0 0 -0 -0 0 -0 -0 0 -0 -0 0 -0 -0 0 -0 -0 0 -0 -0 0 -0 
0 95.5 0 -0 0 -0 0.1289 0.72875 5.4243 -0.082617 -0.11405 0.2687 -0.082617 -0.11405 0.2687 -0.069434 -0.095775 0.22572 -0 0 -0 -0.53399 0.50789 1.6757 -1.2744 0.65228 3.507 0.20257 -0.6539 4.3816 -0 0 -0 0.088832 -0.036413 -0.9141 0.046796 0.094372 -1.2846 0.30035 -0.43946 -0.85362 -2.7121 4.3117 -0.65373 -2.7121 4.3117 -0.65373 -0 0 -0 -0 0 -0 -0 0 -0 -0 0 -0 -0 0 -0 -0 0 -0 -0 0 -0 -0 0 -0 -0 0 -0 -0 0 -0 -0 0 -0 -0 0 -0 
0 95.5 0 -0 0 -0 0.14697 0.80072 5.4682 -0.079212 -0.13563 0.26804 -0.079212 -0.13563 0.26804 -0.066581 -0.1139 0.22517 -0 0 -0 -0.55739 0.53205 1.6284 -1.2728 0.6287 3.5121 0.24464 -0.6442 4.4102 -0 0 -0 0.028339 -0.019237 -0.91629 0.083034 0.073097 -1.3135 0.30659 -0.44548 -0.86029 -2.6992 4.2974 -0.66962 -2.6992 4.2974 -0.66962 -0 0 -0 -0 0 -0 -0 0 -0 -0 0 -0 -0 0 -0 -0 0 -0 -0 0 -0 -0 0 -0 -0 0 -0 -0 0 -0 -0 0 -0 -0 0 -0 
0 95.5 0 -0 0 -0 0.13287 0.82565 5.4797 -0.05629 -0.12579 0.27062 -0.05629 -0.12579 0.27062 -0.047323 -0.10565 0.22733 -0 0 -0 -0.59277 0.49378 1.6072 -1.2875 0.60398 3.5432 0.24936 -0.61331 4.3632 -0 0 -0 -0.041926 -0.069747 -0.87537 0.12707 0.068606 -1.3729 0.30713 -0.43707 -0.86746 -2.7043 4.2499 -0.69095 -2.7043 4.2499 -0.69095 -0 0 -0 -0 0 -0 -0 0 -0 -0 0 -0 -0 0 -0 -0 0 -0 -0 0 -0 -0 0 -0 -0 0 -0 -0 0 -0 -0 0 -0 -0 0 -0 
0 95.5 0 -0 0 -0 0.17035 0.81953 5.5088 -0.053056 -0.10131 0.2598 -0.053056 -0.10131 0.2598 -0.044598 -0.085081 0.21824 -0 0 -0 -0.61682 0.45424 1.636 -1.2913 0.57775 3.5138 0.24389 -0.59502 4.3872 -0 0 -0 -0.09262 -0.13334 -0.87339 0.1386 0.086905 -1.3706 0.29795 -0.41705 -0.88568 -2.7432 4.2216 -0.6944 -2.7432 4.2216 -0.6944 -0 0 -0 -0 0 -0 -0 0 -0 -0 0 -0 -0 0 -0 -0 0 -0 -0 0 -0 -0 0 -0 -0 0 -0 -0 0 -0 -0 0 -0 -0 0 -0 
0 95.5 0 -0 0 -0 0.22584 0.84692 5.531 -0.056688 -0.10517 0.25742 -0.056688 -0.10517 0.25742 -0.047649 -0.088323 0.21624 -0 0 -0 -0.65016 0.47649 1.6078 -1.2761 0.54041 3.5108 0.23592 -0.56582 4.4364 -0 0 -0 -0.14714 -0.14539 -0.88033 0.1605 0.095145 -1.3887 0.26756 -0.39336 -0.90743 -2.7617 4.2281 -0.70655 -2.7617 4.2281 -0.70655 -0 0 -0 -0 0 -0 -0 0 -0 -0 0 -0 -0 0 -0 -0 0 -0 -0 0 -0 -0 0 -0 -0 0 -0 -0 0 -0 -0 0 -0 -0 0 -0 
0 95.5 0 -0 0 -0 0.27 0.87355 5.564 -0.072798 -0.10357 0.23511 -0.072798 -0.10357 0.23511 -0.061179 -0.086982 0.1975 -0 0 -0 -0.62688 0.47454 1.621 -1.2589 0.50803 3.5039 0.22048 -0.51137 4.4557 -0 0 -0 -0.17524 -0.16384 -0.85461 0.19721 0.10007 -1.3955 0.26639 -0.39688 -0.93068 -2.7115 4.2214 -0.69116 -2.7115 4.2214 -0.69116 -0 0 -0 -0 0 -0 -0 0 -0 -0 0 -0 -0 0 -0 -0 0 -0 -0 0 -0 -0 0 -0 -0 0 -0 -0 0 -0 -0 0 -0 -0 0 -0 
0 95.5 0 -0 0 -0 0.3302 0.87992 5.5981 -0.093101 -0.10284 0.20762 -0.093101 -0.10284 0.20762 -0.07823 -0.086365 0.17441 -0 0 -0 -0.60367 0.48894 1.6532 -1.2438 0.49014 3.5006 0.17517 -0.48174 4.4573 -0 0 -0 -0.17664 -0.14492 -0.82429 0.21377 0.071737 -1.4022 0.27208 -0.38235 -0.94733 -2.6738 4.2681 -0.6751 -2.6738 4.2681 -0.6751 -0 0 -0 -0 0 -0 -0 0 -0 -0 0 -0 -0 0 -0 -0 0 -0 -0 0 -0 -0 0 -0 -0 0 -0 -0 0 -0 -0 0 -0 -0 0 -0 
0 95.5 0 -0 0 -0 0.3654 0.92336 5.6335 -0.10029 -0.10587 0.19723 -0.10029 -0.10587 0.19724 -0.084266 -0.088904 0.16569 -0 0 -0 -0.59356 0.46615 1.6417 -1.2239 0.47457 3.4884 0.13833 -0.47842 4.4599 -0 0 -0 -0.18032 -0.16414 -0.84286 0.22155 0.056574 -1.3753 0.28403 -0.37644 -0.96202 -2.6267 4.3205 -0.67721 -2.6267 4.3205 -0.67721 -0 0 -0 -0 0 -0 -0 0 -0 -0 0 -0 -0 0 -0 -0 0 -0 -0 0 -0 -0 0 -0 -0 0 -0 -0 0 -0 -0 0 -0 -0 0 -0 
